<svg xmlns="http://www.w3.org/2000/svg" viewBox="0 0 24 24" width="24" height="24">
  <path d="M12 2.163c3.204 0 3.584.012 4.85.07 1.366.062 2.633.34 3.608 1.316.975.976 1.254 2.243 1.316 3.608.058 1.266.07 1.646.07 4.85s-.012 3.584-.07 4.85c-.062 1.366-.341 2.633-1.316 3.608-.976.975-2.243 1.254-3.608 1.316-1.266.058-1.646.07-4.85.07s-3.584-.012-4.85-.07c-1.366-.062-2.633-.341-3.608-1.316-.975-.976-1.254-2.243-1.316-3.608C2.175 15.747 2.163 15.367 2.163 12s.012-3.584.07-4.85c.062-1.366.341-2.633 1.316-3.608.976-.975 2.243-1.254 3.608-1.316C8.416 2.175 8.796 2.163 12 2.163z"/>
</svg>
